<svg width="50" height="50" viewBox="0 0 50 50" fill="none" xmlns="http://www.w3.org/2000/svg">
<path d="M21.8075 19.5039L27.1836 29.3121L26.2444 37.2988L20.9785 27.6328L21.8075 19.5039Z" fill="#00A76F"/>
<path d="M11.0123 12.5542L15.6953 26.1585L14.3626 37.2999L9.68164 24.1865L11.0123 12.5542Z" fill="#00A76F"/>
<path d="M11.0127 12.5532C11.0127 12.5532 6.30172 11.688 5.09257 16.9352C5.06154 17.0697 5.0393 17.2057 5.0212 17.3428C4.27595 23.0518 2.92871 35.1294 2.92871 35.1294C2.92871 35.1294 3.12575 37.3967 5.44269 37.4955C7.75963 37.5942 8.40041 36.066 8.59745 34.2419C8.7945 32.4179 11.0127 12.5532 11.0127 12.5532Z" fill="url(#paint0_linear_324_3854)"/>
<path d="M21.8079 19.5033C21.8079 19.5033 18.0688 19.1919 16.4071 22.4806C16.0901 23.108 15.9034 23.7927 15.8284 24.4914C15.276 29.6378 14.3643 37.2982 14.3643 37.2982C14.3643 37.2982 17.2723 38.3335 19.7372 34.8333C20.6738 33.6505 20.6738 29.5592 21.8074 19.5033H21.8079Z" fill="url(#paint1_linear_324_3854)"/>
<path d="M26.2447 37.2984L27.3587 27.7844C27.4342 27.139 27.6824 26.521 28.0992 26.0229C28.5735 25.4561 29.3255 24.926 30.4343 25.0739C32.5537 25.5177 32.8004 27.0454 32.8004 27.8837C32.8004 28.523 32.399 31.627 32.2087 33.0648C32.052 34.2486 31.4862 35.3491 30.5812 36.128C29.688 36.897 28.3149 37.5099 26.2441 37.2984H26.2447Z" fill="url(#paint2_linear_324_3854)"/>
<path d="M28.4189 12.9253H41.2221C41.2221 12.9253 43.2199 15.2386 42.9572 16.5533H31.9683C31.9683 16.5533 28.7872 15.8173 28.4189 12.9253Z" fill="url(#paint3_linear_324_3854)"/>
<path d="M33.94 19.7344C33.94 19.7344 38.0412 20.1812 39.1453 19.1298C40.0364 18.3199 41.1458 16.9018 40.311 15.1031C39.7933 13.9876 38.7254 13.2299 37.5111 13.038C37.1351 12.9786 36.8584 12.9253 36.8584 12.9253H41.1959C41.214 12.9253 41.2316 12.9274 41.2487 12.9325C41.5709 13.0225 44.7142 14.002 44.1402 17.8943C43.6142 20.1818 41.59 21.2332 39.6971 21.2068C38.3825 21.2332 34.3077 21.2332 34.3077 21.2332L33.9395 19.7344H33.94Z" fill="url(#paint4_linear_324_3854)"/>
<path d="M28.4775 25.6356C28.4775 25.6356 31.5488 23.9402 32.9681 26.4064C34.1634 28.7815 34.3789 32.3953 36.8068 32.852C39.3091 33.1716 41.4755 32.3037 42.5964 28.513C42.5215 30.705 41.7744 34.5873 37.6662 36.277C35.6864 36.8708 33.158 36.9365 33.158 36.9365C33.158 36.9365 30.9434 35.8203 29.8599 31.2993C29.4118 28.2849 29.038 26.0468 28.478 25.6361L28.4775 25.6356Z" fill="url(#paint5_linear_324_3854)"/>
<path d="M34.794 23.1786L34.3079 21.233C34.3079 21.233 39.763 21.1673 40.9856 21.4828C42.2082 21.7982 46.9011 23.6125 47.1374 29.5667C46.7035 34.6934 42.5568 39.031 33.1318 36.9411C35.7348 36.6649 40.2756 36.3101 41.7345 31.3804C42.9964 26.9245 41.6161 22.7442 34.794 23.1781V23.1786Z" fill="url(#paint6_linear_324_3854)"/>
<defs>
<linearGradient id="paint0_linear_324_3854" x1="2.92871" y1="12.5" x2="17.5661" y2="17.2331" gradientUnits="userSpaceOnUse">
<stop stop-color="#00A76F"/>
<stop offset="1" stop-color="#007867"/>
</linearGradient>
<linearGradient id="paint1_linear_324_3854" x1="14.3643" y1="19.4954" x2="27.0663" y2="24.764" gradientUnits="userSpaceOnUse">
<stop stop-color="#00A76F"/>
<stop offset="1" stop-color="#007867"/>
</linearGradient>
<linearGradient id="paint2_linear_324_3854" x1="26.2441" y1="25.0488" x2="36.4524" y2="30.4937" gradientUnits="userSpaceOnUse">
<stop stop-color="#00A76F"/>
<stop offset="1" stop-color="#007867"/>
</linearGradient>
<linearGradient id="paint3_linear_324_3854" x1="28.4189" y1="12.9253" x2="30.121" y2="19.7572" gradientUnits="userSpaceOnUse">
<stop stop-color="#00A76F"/>
<stop offset="1" stop-color="#007867"/>
</linearGradient>
<linearGradient id="paint4_linear_324_3854" x1="33.9395" y1="12.9253" x2="42.0639" y2="22.9692" gradientUnits="userSpaceOnUse">
<stop stop-color="#5BE49B"/>
<stop offset="1" stop-color="#00A76F"/>
</linearGradient>
<linearGradient id="paint5_linear_324_3854" x1="28.4775" y1="25.0674" x2="40.1701" y2="38.9762" gradientUnits="userSpaceOnUse">
<stop stop-color="#00A76F"/>
<stop offset="1" stop-color="#007867"/>
</linearGradient>
<linearGradient id="paint6_linear_324_3854" x1="33.1318" y1="21.2273" x2="49.2046" y2="35.0795" gradientUnits="userSpaceOnUse">
<stop stop-color="#5BE49B"/>
<stop offset="1" stop-color="#00A76F"/>
</linearGradient>
</defs>
</svg>
