<svg width="89" height="30" viewBox="0 0 89 30" fill="none" xmlns="http://www.w3.org/2000/svg">
<path d="M28.9088 12.476C29.8206 14.0352 29.8206 15.9648 28.9088 17.524L24.2364 25.5143C23.3396 27.0478 21.6966 27.9904 19.9202 27.9904H10.4642C8.68773 27.9904 7.04469 27.0478 6.14796 25.5143L1.47548 17.524C0.563749 15.9648 0.563749 14.0352 1.47548 12.476L6.14796 4.48566C7.04469 2.95217 8.68773 2.00962 10.4642 2.00962H19.9202C21.6966 2.00962 23.3396 2.95217 24.2364 4.48566L28.9088 12.476Z" fill="#0088CC"/>
<mask id="path-2-inside-1_780_3555" fill="white">
<path fill-rule="evenodd" clip-rule="evenodd" d="M20.4029 8.5H10.148C8.27062 8.5 7.05035 10.5162 8.01249 12.1385L14.3485 22.9612C14.7709 23.6796 15.8034 23.6796 16.2024 22.9612L22.5384 12.1385C23.477 10.5162 22.3037 8.5 20.4029 8.5ZM14.309 10.4612V10.4882L15.3217 12.1012L16.3346 10.488V13.9111L15.318 15.5707L14.309 13.9114V19.7112L9.63169 11.2115C9.42049 10.8407 9.67862 10.4612 10.148 10.4612H14.309ZM20.9192 11.2115L16.3347 19.7112V10.4612H20.3861C20.8319 10.4612 21.1304 10.8407 20.9192 11.2115Z"/>
</mask>
<path fill-rule="evenodd" clip-rule="evenodd" d="M20.4029 8.5H10.148C8.27062 8.5 7.05035 10.5162 8.01249 12.1385L14.3485 22.9612C14.7709 23.6796 15.8034 23.6796 16.2024 22.9612L22.5384 12.1385C23.477 10.5162 22.3037 8.5 20.4029 8.5ZM14.309 10.4612V10.4882L15.3217 12.1012L16.3346 10.488V13.9111L15.318 15.5707L14.309 13.9114V19.7112L9.63169 11.2115C9.42049 10.8407 9.67862 10.4612 10.148 10.4612H14.309ZM20.9192 11.2115L16.3347 19.7112V10.4612H20.3861C20.8319 10.4612 21.1304 10.8407 20.9192 11.2115Z" fill="white"/>
<path d="M8.01249 12.1385L8.87549 11.6332L8.87259 11.6284L8.01249 12.1385ZM14.3485 22.9612L13.4855 23.4664L13.4864 23.468L14.3485 22.9612ZM16.2024 22.9612L15.3394 22.456C15.3355 22.4625 15.3318 22.4691 15.3281 22.4757L16.2024 22.9612ZM22.5384 12.1385L23.4014 12.6437L23.4039 12.6393L22.5384 12.1385ZM14.309 10.4882H13.309C13.309 10.6764 13.3621 10.8607 13.4621 11.02L14.309 10.4882ZM14.309 10.4612H15.309C15.309 9.9089 14.8613 9.46118 14.309 9.46118V10.4612ZM15.3217 12.1012L14.4748 12.633C14.6578 12.9244 14.9777 13.1012 15.3217 13.1012C15.6658 13.1012 15.9857 12.9244 16.1686 12.633L15.3217 12.1012ZM16.3346 10.488H17.3346C17.3346 10.0423 17.0396 9.65039 16.6112 9.52707C16.1829 9.40375 15.7247 9.57881 15.4877 9.9563L16.3346 10.488ZM16.3346 13.9111L17.1873 14.4335C17.2836 14.2763 17.3346 14.0955 17.3346 13.9111H16.3346ZM15.318 15.5707L14.4635 16.0902C14.6446 16.3881 14.9677 16.5701 15.3163 16.5707C15.6649 16.5713 15.9886 16.3903 16.1707 16.093L15.318 15.5707ZM14.309 13.9114L15.1635 13.3918C14.9305 13.0087 14.471 12.8275 14.0392 12.9484C13.6075 13.0694 13.309 13.463 13.309 13.9114H14.309ZM14.309 19.7112L13.4329 20.1933C13.653 20.5932 14.1159 20.7933 14.5579 20.6797C15 20.5661 15.309 20.1676 15.309 19.7112H14.309ZM9.63169 11.2115L10.5078 10.7294C10.5054 10.7251 10.503 10.7208 10.5006 10.7165L9.63169 11.2115ZM16.3347 19.7112H15.3347C15.3347 20.1692 15.6458 20.5686 16.0899 20.6808C16.534 20.7929 16.9974 20.589 17.2148 20.1859L16.3347 19.7112ZM20.9192 11.2115L20.0502 10.7165C20.0464 10.7232 20.0427 10.73 20.039 10.7368L20.9192 11.2115ZM16.3347 10.4612V9.46118C15.7824 9.46118 15.3347 9.9089 15.3347 10.4612H16.3347ZM10.148 9.5H20.4029V7.5H10.148V9.5ZM8.87259 11.6284C8.33021 10.7138 8.99732 9.5 10.148 9.5V7.5C7.54392 7.5 5.7705 10.3186 7.15238 12.6486L8.87259 11.6284ZM15.2115 22.456L8.87548 11.6332L7.1495 12.6437L13.4855 23.4664L15.2115 22.456ZM15.3281 22.4757C15.3195 22.4912 15.3141 22.4934 15.3132 22.4939C15.3094 22.4961 15.2997 22.5 15.2842 22.5C15.2688 22.5 15.2547 22.496 15.2441 22.4901C15.236 22.4857 15.2239 22.4771 15.2105 22.4543L13.4864 23.468C14.2842 24.8248 16.2861 24.8703 17.0766 23.4466L15.3281 22.4757ZM21.6754 11.6332L15.3394 22.456L17.0653 23.4664L23.4013 12.6437L21.6754 11.6332ZM20.4029 9.5C21.5503 9.5 22.2173 10.6966 21.6728 11.6376L23.4039 12.6393C24.7367 10.3359 23.0571 7.5 20.4029 7.5V9.5ZM15.309 10.4882V10.4612H13.309V10.4882H15.309ZM16.1686 11.5695L15.1559 9.95652L13.4621 11.02L14.4748 12.633L16.1686 11.5695ZM15.4877 9.9563L14.4748 11.5695L16.1686 12.633L17.1815 11.0198L15.4877 9.9563ZM17.3346 13.9111V10.488H15.3346V13.9111H17.3346ZM16.1707 16.093L17.1873 14.4335L15.4818 13.3888L14.4652 15.0483L16.1707 16.093ZM13.4546 14.4309L14.4635 16.0902L16.1724 15.0511L15.1635 13.3918L13.4546 14.4309ZM15.309 19.7112V13.9114H13.309V19.7112H15.309ZM8.75558 11.6936L13.4329 20.1933L15.1851 19.2291L10.5078 10.7294L8.75558 11.6936ZM10.148 9.46118C9.64707 9.46118 9.12632 9.67011 8.80979 10.1319C8.47842 10.6153 8.484 11.217 8.76275 11.7064L10.5006 10.7165C10.5286 10.7657 10.5593 10.8492 10.557 10.9587C10.5547 11.0688 10.5194 11.1753 10.4595 11.2627C10.3365 11.442 10.1795 11.4612 10.148 11.4612V9.46118ZM14.309 9.46118H10.148V11.4612H14.309V9.46118ZM17.2148 20.1859L21.7993 11.6862L20.039 10.7368L15.4546 19.2365L17.2148 20.1859ZM15.3347 10.4612V19.7112H17.3347V10.4612H15.3347ZM20.3861 9.46118H16.3347V11.4612H20.3861V9.46118ZM21.7881 11.7064C22.0903 11.1759 22.0412 10.5622 21.7044 10.1045C21.3896 9.67681 20.8872 9.46118 20.3861 9.46118V11.4612C20.3308 11.4612 20.2005 11.4353 20.0936 11.29C20.0389 11.2156 19.9965 11.1148 19.9894 10.9975C19.9823 10.8779 20.0142 10.7798 20.0502 10.7165L21.7881 11.7064Z" fill="white" mask="url(#path-2-inside-1_780_3555)"/>
<path d="M48.216 11.2332H44.6639V21.5252H41.7356V11.2332H38.1836V8.9134H48.216V11.2332ZM61.8052 15.215C61.8052 16.1267 61.6463 16.975 61.3287 17.7598C61.0168 18.5447 60.5749 19.2285 60.0031 19.8114C59.4313 20.3884 58.7412 20.8414 57.9326 21.1703C57.1297 21.4993 56.2374 21.6637 55.2555 21.6637C54.2736 21.6637 53.3784 21.4993 52.5698 21.1703C51.7612 20.8414 51.0681 20.3884 50.4906 19.8114C49.9188 19.2285 49.474 18.5447 49.1564 17.7598C48.8445 16.975 48.6885 16.1267 48.6885 15.215C48.6885 14.3032 48.8445 13.4549 49.1564 12.6701C49.474 11.8853 49.9188 11.2043 50.4906 10.6273C51.0681 10.0502 51.7612 9.59723 52.5698 9.2683C53.3784 8.93937 54.2736 8.7749 55.2555 8.7749C56.2374 8.7749 57.1297 8.94225 57.9326 9.27695C58.7412 9.60586 59.4313 10.0589 60.0031 10.636C60.5749 11.213 61.0168 11.894 61.3287 12.6788C61.6463 13.4636 61.8052 14.309 61.8052 15.215ZM58.8076 15.215C58.8076 14.5917 58.7267 14.032 58.565 13.5357C58.4033 13.0336 58.1694 12.6095 57.8633 12.2633C57.5629 11.917 57.1933 11.6516 56.7543 11.4669C56.3154 11.2823 55.8158 11.1899 55.2555 11.1899C54.6895 11.1899 54.1841 11.2823 53.7394 11.4669C53.3005 11.6516 52.9279 11.917 52.6218 12.2633C52.3215 12.6095 52.0904 13.0336 51.9287 13.5357C51.767 14.032 51.6861 14.5917 51.6861 15.215C51.6861 15.844 51.767 16.4095 51.9287 16.9116C52.0904 17.4078 52.3215 17.8291 52.6218 18.1753C52.9279 18.5216 53.3005 18.787 53.7394 18.9717C54.1841 19.1506 54.6895 19.2401 55.2555 19.2401C55.8158 19.2401 56.3154 19.1506 56.7543 18.9717C57.1933 18.787 57.5629 18.5216 57.8633 18.1753C58.1694 17.8291 58.4033 17.4078 58.565 16.9116C58.7267 16.4095 58.8076 15.844 58.8076 15.215ZM74.5485 8.9134V21.5252H73.0237C72.7984 21.5252 72.6078 21.4906 72.4519 21.4214C72.3017 21.3464 72.1515 21.2194 72.0014 21.0405L66.0495 13.5184C66.0726 13.7434 66.0871 13.9627 66.0928 14.1762C66.1044 14.384 66.1102 14.5802 66.1102 14.7649V21.5252H63.5284V8.9134H65.0705C65.1976 8.9134 65.3044 8.91917 65.3911 8.93071C65.4777 8.94225 65.5557 8.96534 65.625 8.99996C65.6943 9.02881 65.7607 9.07209 65.8242 9.1298C65.8878 9.18751 65.96 9.26541 66.0409 9.36351L72.0447 16.9375C72.0158 16.6952 71.9956 16.4614 71.984 16.2364C71.9725 16.0056 71.9667 15.7892 71.9667 15.5872V8.9134H74.5485Z" fill="#FBF9F1"/>
<path d="M80.1001 17.445C80.0737 17.3373 80.032 17.2429 79.9751 17.1616C79.9182 17.0783 79.847 17.0082 79.7616 16.9514C79.6783 16.8925 79.5807 16.8488 79.4688 16.8204C79.359 16.7898 79.238 16.7746 79.1059 16.7746C78.8212 16.7746 78.5783 16.8427 78.377 16.9788C78.1777 17.1149 78.0253 17.3109 77.9195 17.5669C77.8159 17.8229 77.764 18.1316 77.764 18.4932C77.764 18.8589 77.8138 19.1717 77.9135 19.4317C78.013 19.6918 78.1615 19.8909 78.3587 20.029C78.5559 20.1671 78.801 20.2362 79.0937 20.2362C79.3519 20.2362 79.5664 20.1986 79.7372 20.1235C79.91 20.0483 80.0392 19.9416 80.1245 19.8035C80.2099 19.6654 80.2526 19.5028 80.2526 19.316L80.5454 19.3464H79.1181V18.1397H81.8873V19.0051C81.8873 19.5739 81.7664 20.0605 81.5244 20.4647C81.2845 20.867 80.9531 21.1757 80.5302 21.391C80.1093 21.6044 79.6264 21.711 79.0815 21.711C78.4736 21.711 77.9399 21.582 77.4804 21.324C77.0209 21.066 76.662 20.6984 76.4038 20.221C76.1476 19.7436 76.0195 19.1758 76.0195 18.5176C76.0195 18.0016 76.0978 17.5446 76.2544 17.1464C76.4129 16.7482 76.6325 16.412 76.9131 16.1378C77.1937 15.8615 77.518 15.6533 77.886 15.5131C78.254 15.3709 78.6484 15.2998 79.0693 15.2998C79.4393 15.2998 79.783 15.3526 80.1001 15.4583C80.4194 15.5618 80.701 15.7102 80.9449 15.9032C81.1909 16.0941 81.3892 16.3206 81.5396 16.5827C81.6901 16.8447 81.7816 17.1322 81.8141 17.445H80.1001ZM84.1076 21.6257H82.2777L84.3393 15.3851H86.6572L88.719 21.6257H86.889L85.5227 17.1037H85.4739L84.1076 21.6257ZM83.766 19.1636H87.2062V20.4312H83.766V19.1636Z" fill="#0088CC"/>
<path d="M76.0439 8.46045H78.1544L79.6061 11.9952H79.6793L81.131 8.46045H83.2414V14.701H81.5823V11.0932H81.5336L80.1428 14.6522H79.1425L77.7518 11.0688H77.703V14.701H76.0439V8.46045ZM84.045 14.701V8.46045H88.5468V9.82557H85.7407V10.8982H88.3147V12.2633H85.7407V13.3359H88.5342V14.701H84.045Z" fill="#0088CC"/>
</svg>
